<svg xmlns="http://www.w3.org/2000/svg" width="32" height="32" fill="none"><g clip-path="url(#a)"><circle cx="16" cy="16" r="16" fill="url(#b)"/><path fill="#fff" d="M12.56 17.755h2.628c-.052.861-.29 1.626-.711 2.294-.417.668-1 1.19-1.75 1.564-.744.375-1.64.563-2.689.563-.82 0-1.556-.14-2.206-.422a4.694 4.694 0 0 1-1.67-1.23c-.457-.534-.806-1.178-1.046-1.934s-.36-1.603-.36-2.54v-.888c0-.937.123-1.784.369-2.54.252-.762.61-1.41 1.072-1.942a4.779 4.779 0 0 1 1.679-1.23c.65-.288 1.377-.431 2.18-.431 1.066 0 1.966.193 2.698.58.738.386 1.31.92 1.714 1.6.41.679.656 1.452.738 2.32H12.57c-.029-.516-.132-.953-.307-1.31a1.745 1.745 0 0 0-.8-.817c-.352-.188-.82-.282-1.406-.282-.44 0-.824.082-1.152.246a2.138 2.138 0 0 0-.826.748c-.223.334-.39.755-.5 1.265a8.757 8.757 0 0 0-.16 1.776v.905c0 .662.05 1.245.15 1.749.1.498.252.92.457 1.265.211.34.48.598.809.774.334.17.735.255 1.204.255.55 0 1.005-.088 1.362-.264.358-.176.63-.436.818-.782.193-.346.307-.777.342-1.292ZM21.534 19.328 24.55 9.203h2.935L23.028 22h-1.933l.44-2.672ZM18.757 9.203l3.006 10.125L22.22 22h-1.951l-4.43-12.797h2.918Z"/></g><defs><linearGradient id="b" x1="16" x2="16" y1="0" y2="32" gradientUnits="userSpaceOnUse"><stop stop-color="#3B81EB"/><stop offset="1" stop-color="#1361BF"/></linearGradient><clipPath id="a"><path fill="#fff" d="M0 0h32v32H0z"/></clipPath></defs></svg>