<svg xmlns="http://www.w3.org/2000/svg" width="32" height="32" fill="none"><path fill="url(#a)" d="M.1 7.11A4 4 0 0 1 4 4h24a4 4 0 0 1 3.9 3.11L16 16.828.1 7.11ZM0 9.394v14.208l11.606-7.116L0 9.394Zm13.522 8.266L.382 25.714A4 4 0 0 0 4 28h24a4 4 0 0 0 3.616-2.288l-13.14-8.054L16 19.172l-2.478-1.512Zm6.872-1.172L32 23.602V9.394l-11.606 7.094Z"/><defs><linearGradient id="a" x1="16" x2="16" y1="4" y2="28" gradientUnits="userSpaceOnUse"><stop stop-color="#3B81EB"/><stop offset="1" stop-color="#1361BF"/></linearGradient></defs></svg>