<svg xmlns="http://www.w3.org/2000/svg" width="32" height="32" fill="none"><g clip-path="url(#a)"><path fill="url(#b)" fill-rule="evenodd" d="M3.77 1.022a3.49 3.49 0 0 1 5.22.326l3.59 4.612c.658.846.89 1.948.63 2.988l-1.094 4.38a1.36 1.36 0 0 0 .356 1.286l4.914 4.914a1.36 1.36 0 0 0 1.288.356l4.378-1.094a3.5 3.5 0 0 1 2.988.63l4.612 3.588a3.49 3.49 0 0 1 .326 5.222l-2.068 2.068c-1.48 1.48-3.692 2.13-5.754 1.404a37.198 37.198 0 0 1-14.02-8.84A37.2 37.2 0 0 1 .296 8.844C-.428 6.784.222 4.57 1.702 3.09L3.77 1.022Z" clip-rule="evenodd"/></g><defs><linearGradient id="b" x1="16" x2="16" y1=".002" y2="32" gradientUnits="userSpaceOnUse"><stop stop-color="#3B81EB"/><stop offset="1" stop-color="#1361BF"/></linearGradient><clipPath id="a"><path fill="#fff" d="M0 0h32v32H0z"/></clipPath></defs></svg>