<svg xmlns="http://www.w3.org/2000/svg" width="221" height="58" fill="none"><path fill="#111" d="M.227 45v-7.893H10.2V1.8h9.067v36.107c0 2.382-.64 4.16-1.92 5.333C16.067 44.413 14.27 45 11.96 45H.227ZM27.53 45V.2h8.852v17.387h.214c1.031-1.707 2.418-2.987 4.16-3.84 1.742-.89 3.804-1.334 6.187-1.334 4.017 0 7.2 1.227 9.546 3.68 2.382 2.418 3.574 5.672 3.574 9.76V45h-8.854V27.507c0-2.347-.64-4.125-1.92-5.334-1.244-1.244-3.075-1.866-5.493-1.866s-4.267.622-5.547 1.866c-1.244 1.21-1.867 2.987-1.867 5.334V45H27.53ZM82.3 45.64c-3.485 0-6.525-.675-9.12-2.027-2.56-1.386-4.552-3.324-5.974-5.813-1.422-2.489-2.133-5.44-2.133-8.853 0-3.378.693-6.311 2.08-8.8 1.422-2.49 3.43-4.41 6.026-5.76 2.596-1.351 5.653-2.027 9.174-2.027 3.484 0 6.506.676 9.066 2.027 2.56 1.35 4.534 3.27 5.92 5.76 1.387 2.489 2.08 5.44 2.08 8.853 0 3.378-.693 6.329-2.08 8.853-1.386 2.49-3.378 4.41-5.973 5.76-2.56 1.352-5.582 2.027-9.067 2.027Zm0-7.68c2.666 0 4.71-.8 6.133-2.4 1.422-1.636 2.133-3.84 2.133-6.613 0-2.774-.711-4.942-2.133-6.507-1.423-1.6-3.467-2.4-6.134-2.4-2.702 0-4.782.8-6.24 2.4-1.422 1.564-2.133 3.733-2.133 6.507 0 2.773.711 4.978 2.133 6.613 1.458 1.6 3.538 2.4 6.24 2.4ZM107.001 45V21.747h-4.373V13h8.96v5.227h2.24c1.244-1.85 2.808-3.271 4.693-4.267 1.884-1.031 4.231-1.547 7.04-1.547 4.444 0 7.875 1.227 10.293 3.68 2.454 2.418 3.68 5.672 3.68 9.76V45h-8.853V27.507c0-2.347-.64-4.125-1.92-5.334-1.245-1.244-3.076-1.866-5.493-1.866-2.418 0-4.267.622-5.547 1.866-1.245 1.21-1.867 2.987-1.867 5.334V45h-8.853ZM148.626 45V21.747h-4.373V13h8.96v5.227h2.24c1.244-1.85 2.808-3.271 4.693-4.267 1.884-1.031 4.231-1.547 7.04-1.547 4.444 0 7.875 1.227 10.293 3.68 2.454 2.418 3.68 5.672 3.68 9.76V45h-8.853V27.507c0-2.347-.64-4.125-1.92-5.334-1.245-1.244-3.076-1.866-5.493-1.866-2.418 0-4.267.622-5.547 1.866-1.245 1.21-1.867 2.987-1.867 5.334V45h-8.853ZM187.962 57.8v-7.093h7.04l2.506-5.974L183.695 13h9.387l8.96 21.547h.213L211.002 13h9.066l-13.706 32-2.614 6.187c-.889 2.098-1.92 3.715-3.093 4.853-1.173 1.173-2.969 1.76-5.387 1.76h-7.306Z"/></svg>